<svg xmlns="http://www.w3.org/2000/svg" viewBox="0 0 636 300"><title>swimlane-signalr-hub</title><line x1="110.5" y1="204.5" x2="517.5" y2="204.5" fill="none" stroke="#b2b2b2" stroke-linecap="round" stroke-linejoin="round" stroke-width="3"/><path d="M372.491,292H247.947a2.992,2.992,0,0,1-2.863-2.971,2.926,2.926,0,0,1,2.863-2.97H372.491a2.867,2.867,0,0,1,2.863,2.97A2.927,2.927,0,0,1,372.491,292Z" fill="#c8c8c8"/><path d="M116.906,179.676v46.873a3.353,3.353,0,0,1-3.352,3.353h-66.7a3.353,3.353,0,0,1-3.353-3.353V179.687a3.353,3.353,0,0,1,3.353-3.352H113.6A3.321,3.321,0,0,1,116.906,179.676Z" fill="#505050"/><rect x="49.452" y="180.303" width="59.519" height="45.631" fill="#c2c2c2"/><circle cx="112.498" cy="202.553" r="1.725" fill="#b2b2b2"/><polygon points="108.5 217.905 108.5 180.5 71.095 180.5 108.5 217.905" fill="#ddd"/><rect x="511.763" y="178.665" width="75.737" height="52.433" rx="2.941" ry="2.941" fill="#8fc3ec"/><path d="M584.559,178.665H537.3L578.373,231.1h6.186a2.941,2.941,0,0,0,2.941-2.941V181.606A2.941,2.941,0,0,0,584.559,178.665Z" fill="#b5d5ea"/><path d="M587.5,189.152v-7.477a2.945,2.945,0,0,0-2.874-3.01H514.637a2.945,2.945,0,0,0-2.874,3.01v7.477Z" fill="#106ebe"/><ellipse cx="582.363" cy="183.462" rx="1.818" ry="1.746" fill="#b2b2b2"/><ellipse cx="575.936" cy="183.462" rx="1.818" ry="1.746" fill="#b2b2b2"/><ellipse cx="569.51" cy="183.462" rx="1.818" ry="1.746" fill="#b2b2b2"/><rect x="515.5" y="181.5" width="49" height="4" fill="#b2b2b2"/><polyline points="164.5 107.5 230.5 107.5 230.5 168.167 413.833 168.167 413.833 99.5 479.167 100.5" fill="none" stroke="#b2b2b2" stroke-linecap="round" stroke-linejoin="round" stroke-width="3"/><polyline points="345.833 139.5 384.5 139.5 384.5 32.833 347.167 32.833" fill="none" stroke="#b2b2b2" stroke-linecap="round" stroke-linejoin="round" stroke-width="3"/><path d="M330.045,9.348H295.061a19.5,19.5,0,0,0-19.445,19.445V39.107a19.5,19.5,0,0,0,19.445,19.445h8.52V72.009L317.04,58.552h13a19.5,19.5,0,0,0,19.446-19.445V28.793A19.5,19.5,0,0,0,330.045,9.348" fill="#d2d2d2"/><rect x="288.061" y="21.527" width="48.59" height="4.345" fill="#fff"/><rect x="288.061" y="31.703" width="48.59" height="4.345" fill="#fff"/><rect x="288.061" y="41.879" width="48.59" height="4.345" fill="#fff"/><path d="M114.686,93.74h7.33c0-.191-.015-.38-.015-.571a31.5,31.5,0,1,1,.614,6.2h-7.929a2.814,2.814,0,1,1,0-5.627" fill="#ffcb40"/><path d="M136.069,93.089a17.384,17.384,0,1,1,29.456,12.5,15.944,15.944,0,0,0-4.765,11.495v.314H146.147v-.312a16.565,16.565,0,0,0-4.974-11.7,17.321,17.321,0,0,1-5.1-12.3" fill="#edac28"/><path d="M155.736,96.779l-.854,24.893,1.342.046.863-25.163a18.022,18.022,0,0,0,3.325-1.018l.088-.037a3.32,3.32,0,0,0,2.052-3.076v-.138a3.332,3.332,0,1,0-6.663,0l-.107,3.131h0l-.045,1.361ZM159.9,94.3a16.7,16.7,0,0,1-2.761.874l.1-2.863a1.988,1.988,0,1,1,3.975-.022v.138a1.984,1.984,0,0,1-1.225,1.836l-.087.037" fill="#fff"/><path d="M147.631,88.954h.056a3.331,3.331,0,0,1,3.332,3.309l.107,3.164a17,17,0,0,0,3.684.095l-.065,1.35a18.464,18.464,0,0,1-3.572-.084l.852,24.883-1.343.046-.861-25.146-.047-1.382-.1-2.9a1.989,1.989,0,0,0-1.987-1.987h-.056a1.99,1.99,0,0,0-1.988,1.987v.149a1.986,1.986,0,0,0,1.216,1.832,16.875,16.875,0,0,0,1.781.628l.059,1.412a18.08,18.08,0,0,1-2.361-.8,3.325,3.325,0,0,1-2.038-3.07v-.149a3.334,3.334,0,0,1,3.331-3.331" fill="#fff"/><path d="M160.76,117.089v8.282a2.176,2.176,0,0,1-2.177,2.176H155.6v1.907h-4.452v-1.907h-2.987a2.177,2.177,0,0,1-2.178-2.176v-8.282Z" fill="#b2b2b2"/><rect x="149.115" y="119.44" width="11.646" height="1.658" fill="#d2d2d2"/><rect x="149.115" y="123.135" width="11.646" height="1.658" fill="#d2d2d2"/><path d="M181.412,68.509a2.806,2.806,0,0,0,1.99-.824l3.752-3.752a2.814,2.814,0,0,0-3.981-3.979l-3.752,3.752a2.814,2.814,0,0,0,1.991,4.8" fill="#ffcb40"/><path d="M485.782,121.485a74.375,74.375,0,0,1-14.1,1.034c-6.724,0-12.8-.517-14.742-1.034s-3.1-1.682-3.1-3.363V61.35c0-1.81,1.164-2.974,3.233-3.233a134.125,134.125,0,0,1,14.613-.775,111.277,111.277,0,0,1,14.1.775c2.2.388,3.234,1.423,3.234,3.363v56.642C489.016,119.933,487.981,120.967,485.782,121.485Z" fill="#505050"/><path d="M486.17,63.808H456.556v52.115H486.17Z" fill="#c2c2c2"/><path d="M486.17,89.025V63.808H458.5Z" fill="#ddd"/><rect x="327.5" y="122.5" width="34" height="166" fill="#09538f"/><rect x="260.5" y="122.5" width="69" height="166" fill="#459bdd"/><rect x="264.529" y="155.766" width="60.096" height="20.026" fill="#1070c4"/><rect x="316.366" y="158.562" width="2.54" height="14.461" fill="#459bdd"/><rect x="311.676" y="158.562" width="2.54" height="14.461" fill="#459bdd"/><rect x="306.986" y="158.562" width="2.54" height="14.461" fill="#459bdd"/><rect x="302.295" y="158.562" width="2.541" height="14.461" fill="#459bdd"/><path d="M271.617,165.207a1.955,1.955,0,1,1-1.954-1.954,1.953,1.953,0,0,1,1.954,1.954" fill="#fec94e"/><path d="M278.652,165.207a1.955,1.955,0,1,1-1.955-1.954,1.954,1.954,0,0,1,1.955,1.954" fill="#fec94e"/><rect x="264.529" y="129.092" width="60.096" height="20.026" fill="#1070c4"/><rect x="316.366" y="131.889" width="2.54" height="14.461" fill="#459bdd"/><rect x="311.676" y="131.889" width="2.54" height="14.461" fill="#459bdd"/><rect x="306.986" y="131.889" width="2.54" height="14.461" fill="#459bdd"/><rect x="302.295" y="131.889" width="2.541" height="14.461" fill="#459bdd"/><path d="M271.617,138.533a1.955,1.955,0,1,1-1.954-1.954,1.954,1.954,0,0,1,1.954,1.954" fill="#fec94e"/><path d="M278.652,138.533a1.955,1.955,0,1,1-1.955-1.954,1.955,1.955,0,0,1,1.955,1.954" fill="#fec94e"/><rect x="264.529" y="181.56" width="60.096" height="20.026" fill="#1070c4"/><rect x="316.366" y="184.357" width="2.54" height="14.461" fill="#459bdd"/><rect x="311.676" y="184.357" width="2.54" height="14.461" fill="#459bdd"/><rect x="306.986" y="184.357" width="2.54" height="14.461" fill="#459bdd"/><rect x="302.295" y="184.357" width="2.541" height="14.461" fill="#459bdd"/><path d="M271.617,191a1.955,1.955,0,1,1-1.954-1.954A1.954,1.954,0,0,1,271.617,191" fill="#fec94e"/><path d="M278.652,191a1.955,1.955,0,1,1-1.955-1.954A1.955,1.955,0,0,1,278.652,191" fill="#fec94e"/><rect x="264.529" y="207.354" width="60.096" height="20.026" fill="#1070c4"/><rect x="316.366" y="210.151" width="2.54" height="14.461" fill="#459bdd"/><rect x="311.676" y="210.151" width="2.54" height="14.461" fill="#459bdd"/><rect x="306.986" y="210.151" width="2.54" height="14.461" fill="#459bdd"/><rect x="302.295" y="210.151" width="2.541" height="14.461" fill="#459bdd"/><path d="M271.617,216.8a1.955,1.955,0,1,1-1.954-1.954,1.954,1.954,0,0,1,1.954,1.954" fill="#fec94e"/><path d="M278.652,216.8a1.955,1.955,0,1,1-1.955-1.954,1.955,1.955,0,0,1,1.955,1.954" fill="#fec94e"/><rect x="264.529" y="233.148" width="60.096" height="20.026" fill="#1070c4"/><rect x="316.366" y="235.945" width="2.54" height="14.461" fill="#459bdd"/><rect x="311.676" y="235.945" width="2.54" height="14.461" fill="#459bdd"/><rect x="306.986" y="235.945" width="2.54" height="14.461" fill="#459bdd"/><rect x="302.295" y="235.945" width="2.541" height="14.461" fill="#459bdd"/><path d="M271.617,242.589a1.955,1.955,0,1,1-1.954-1.954,1.954,1.954,0,0,1,1.954,1.954" fill="#fec94e"/><path d="M278.652,242.589a1.955,1.955,0,1,1-1.955-1.954,1.955,1.955,0,0,1,1.955,1.954" fill="#fec94e"/><rect x="264.529" y="258.943" width="60.096" height="20.026" fill="#1070c4"/><rect x="316.366" y="261.739" width="2.54" height="14.461" fill="#459bdd"/><rect x="311.676" y="261.739" width="2.54" height="14.461" fill="#459bdd"/><rect x="306.986" y="261.739" width="2.54" height="14.461" fill="#459bdd"/><rect x="302.295" y="261.739" width="2.541" height="14.461" fill="#459bdd"/><path d="M271.617,268.384a1.955,1.955,0,1,1-1.954-1.954,1.954,1.954,0,0,1,1.954,1.954" fill="#fec94e"/><path d="M278.652,268.384a1.955,1.955,0,1,1-1.955-1.954,1.955,1.955,0,0,1,1.955,1.954" fill="#fec94e"/></svg>